# xmcd
#
# Track frame offsets:
#	150
#	11118
#	26099
#	34410
#	44518
#	56476
#	67897
#	77695
#	89662
#	100507
#	113940
#	129937
#
# Disc length: 1895 seconds
#
# Revision: 0
# Processed by: cddbd v1.5.1PL0 Copyright (c) Steve Scherf et al.
# Submitted via: MusicWizard 7.0.2
#
DISCID=9a07650c
DTITLE=Various Artist - Rocky Mountain Christmas
DYEAR=1900
DGENRE=Weihnachten
TTITLE0=John Denver - Aspenglow
TTITLE1=John Denver - The Christmas Song (Chestnuts
TTITLE2=John Denver - Rudolph The Red-Nosed Reindeee
TTITLE3=John Denver - Silver Bells
TTITLE4=John Denver - Please, Daddy (Don't Get Drunk
TTITLE5=John Denver - Christmas For Cowboys
TTITLE6=John Denver - Away In A Manger
TTITLE7=John Denver - What Child Is This
TTITLE8=John Denver - Coventry Carol
TTITLE9=John Denver - Oh Holy Night
TTITLE10=John Denver - Silent Night, Holy Night
TTITLE11=John Denver - A Baby Just Like You
EXTD=
EXTT0=
EXTT1=
EXTT2=
EXTT3=
EXTT4=
EXTT5=
EXTT6=
EXTT7=
EXTT8=
EXTT9=
EXTT10=
EXTT11=
PLAYORDER=
